<?xml version='1.0' encoding='utf-8'?>
<svg xmlns="http://www.w3.org/2000/svg" width="1520" height="930" viewBox="0 0 1520 930" role="img" aria-label="Adaptive Able Computing LLC logo" shape-rendering="crispEdges" version="1.1" id="svg18">
  <defs id="defs22" />
  <title id="title2">Adaptive Able Computing LLC Logo</title>
  
  <g id="g12">
    
    <path id="polygon4" style="fill:#cc0000" d="M 160,560 V 160 h 1200 z" />
    
    <path id="polygon6" style="fill:#ffffff" d="M 160,560 1360,160 v 400 z" />
    
    <path id="rect8" style="fill:none;stroke:#000000;stroke-width:2" d="M 160,160 H 1360 V 560 H 160 Z" />
    
    <path id="line10" style="stroke:#000000;stroke-width:2" d="M 160,560 1360,160" />
  </g>
  
  <g aria-label="™" id="text14" style="font-weight:700;font-size:64px;font-family:Arial, Helvetica, Verdana, sans-serif;dominant-baseline:text-after-edge" transform="scale(1.4 1.4) translate(0 0)">
    <path d="m 1411.0938,521.64828 h -5.1875 v -20.03125 h 7.75 l 4.3437,9.40625 q 0.6875,1.53125 2.0313,5 l 2,-5 4.5,-9.40625 h 7.5937 v 20.03125 h -5.1562 v -10.625 q 0,-0.5 0.25,-5.375 l -0.9375,2.34375 -1.4375,3.40625 -4.8125,10.25 h -4.0938 l -4.6562,-10.25 -2.4063,-5.75 q 0.2188,4.46875 0.2188,5.375 z m -15.9688,-15.6875 v 15.6875 h -5.625 v -15.6875 h -7.5937 v -4.34375 h 21.0625 v 4.34375 z" id="path28" />
  </g>
  
  <g aria-label="Adaptive Able Computing LLC" id="text16" style="font-weight:700;font-size:140px;font-family:Arial, Helvetica, Verdana, sans-serif" transform="translate(-14.848477 0) scale(1.068012 1)">
    <path d="m 206.08033,770 -5.08389,-24.60938 H 179.15608 L 174.07219,770 h -11.99797 l 20.90494,-96.31836 h 14.15353 L 217.95628,770 Z m -7.76818,-39.78516 -5.65328,-27.68554 -2.60295,-14.01368 q -0.65073,3.96485 -1.22013,7.10938 -0.56939,3.14453 -6.99542,34.58984 z" id="path31" />
    <path d="m 254.4789,770 q -0.16268,-1.02539 -0.40671,-5.12695 -0.20336,-4.16993 -0.20336,-6.9043 h -0.16268 q -3.70107,13.39844 -14.07219,13.39844 -7.68683,0 -11.87595,-10.04883 -4.18912,-10.11719 -4.18912,-28.23242 0,-18.38867 4.39247,-28.36914 4.43315,-10.04883 12.52669,-10.04883 4.67718,0 8.05287,3.28125 3.41637,3.28125 5.24657,9.77539 h 0.0813 l -0.0813,-12.16797 v -27.00195 h 11.42857 v 85.3125 q 0,6.83593 0.32537,16.13281 z m -0.52872,-37.39258 q 0,-11.96289 -2.3996,-18.38867 -2.35892,-6.49414 -6.99542,-6.49414 -4.59583,0 -6.83274,6.28906 -2.23691,6.2207 -2.23691,19.07227 0,25.15625 8.98831,25.15625 4.51449,0 6.99542,-6.63086 2.48094,-6.69922 2.48094,-19.00391 z" id="path33" />
    <path d="m 287.01576,771.36719 q -6.38536,0 -9.96441,-5.81055 -3.57906,-5.87891 -3.57906,-16.47461 0,-11.48437 4.43315,-17.43164 4.47382,-5.94727 12.9334,-6.2207 l 9.47636,-0.27344 v -3.75977 q 0,-7.24609 -1.50483,-10.73242 -1.50483,-3.55469 -4.9212,-3.55469 -3.17234,0 -4.67717,2.46094 -1.46416,2.39258 -1.8302,7.99805 l -11.91662,-0.95703 q 1.09811,-10.80078 5.85663,-16.33789 4.79919,-5.60547 13.05541,-5.60547 8.33757,0 12.85206,6.9043 4.51449,6.90429 4.51449,19.61914 V 748.125 q 0,6.2207 0.81342,8.61328 0.8541,2.32422 2.80631,2.32422 1.30147,0 2.5216,-0.41016 v 10.39063 q -1.01677,0.41015 -1.83019,0.75195 -0.81343,0.3418 -1.62685,0.54688 -0.81342,0.20508 -1.74885,0.34179 -0.89477,0.13672 -2.1149,0.13672 -4.31113,0 -6.38536,-3.55469 -2.03355,-3.55468 -2.44026,-10.45898 h -0.24403 q -4.79918,14.56055 -14.4789,14.56055 z m 13.29944,-35.61524 -5.85663,0.13672 q -3.98577,0.27344 -5.65328,1.50391 -1.66752,1.16211 -2.56228,3.62304 -0.85409,2.46094 -0.85409,6.5625 0,5.26368 1.42348,7.86133 1.46416,2.5293 3.86376,2.5293 2.68429,0 4.88053,-2.46094 2.2369,-2.46094 3.49771,-6.76758 1.2608,-4.375 1.2608,-9.22851 z" id="path35" />
    <path d="m 364.81953,732.67578 q 0,18.52539 -4.43315,28.64258 -4.39248,10.04883 -12.44535,10.04883 -4.6365,0 -8.09354,-3.34961 -3.41637,-3.41797 -5.24657,-9.77539 h -0.24403 q 0.24403,2.05078 0.24403,12.4414 v 28.36914 h -11.42857 v -85.99609 q 0,-10.45898 -0.32537,-17.02148 h 11.1032 q 0.20336,1.23046 0.32537,4.85351 0.16268,3.62305 0.16268,7.17774 h 0.16269 q 3.86375,-13.60352 14.07219,-13.60352 7.68683,0 11.91662,9.98047 4.2298,9.91211 4.2298,28.23242 z m -11.91663,0 q 0,-24.88281 -9.06965,-24.88281 -4.55516,0 -6.99542,6.69922 -2.3996,6.69922 -2.3996,18.73047 0,11.96289 2.3996,18.52539 2.44026,6.49414 6.91408,6.49414 9.15099,0 9.15099,-25.56641 z" id="path37" />
    <path d="m 385.31775,771.23047 q -5.04321,0 -7.76817,-4.58008 -2.72497,-4.64844 -2.72497,-14.01367 v -43.61328 h -5.57193 v -12.98828 h 6.14133 l 3.57905,-17.36329 h 7.15811 v 17.36329 h 8.33757 v 12.98828 h -8.33757 v 38.41797 q 0,5.40039 1.22014,7.99804 1.22013,2.5293 3.7824,2.5293 1.34215,0 3.82309,-0.95703 v 11.89453 q -4.2298,2.32422 -9.63905,2.32422 z" id="path39" />
    <path d="m 401.78954,770 v -73.96484 h 11.42857 V 770 Z m 0,-87.29492 v -14.15039 h 11.42857 v 14.15039 z" id="path41" />
    <path d="m 448.84597,770 h -13.66548 l -15.7397,-73.96484 h 12.0793 l 7.68684,41.35742 q 0.61006,3.41797 2.88764,17.08984 0.40671,-2.80273 1.66752,-9.84375 1.2608,-7.04101 9.35434,-48.60351 h 11.9573 z" id="path43" />
    <path d="m 489.27301,771.36719 q -9.92374,0 -15.25166,-9.84375 -5.32791,-9.91211 -5.32791,-28.84766 0,-18.32031 5.40926,-28.16406 5.40925,-9.84375 15.33299,-9.84375 9.47636,0 14.4789,10.5957 5.00255,10.52735 5.00255,30.89844 v 0.54687 h -28.22573 q 0,10.80079 2.35892,16.33789 2.3996,5.46875 6.79207,5.46875 6.05999,0 7.64616,-8.81835 l 10.77784,1.57226 q -4.67718,20.09766 -18.99339,20.09766 z m 0,-64.59961 q -4.02644,0 -6.22268,4.71679 -2.15556,4.7168 -2.27758,13.19336 h 17.08185 q -0.32537,-8.95507 -2.56227,-13.39843 -2.23691,-4.51172 -6.01932,-4.51172 z" id="path45" />
    <path d="m 577.89527,770 -5.08389,-24.60938 H 550.97102 L 545.88713,770 h -11.99796 l 20.90493,-96.31836 h 14.15353 L 589.77122,770 Z m -7.76818,-39.78516 -5.65328,-27.68554 -2.60295,-14.01368 q -0.65073,3.96485 -1.22013,7.10938 -0.56939,3.14453 -6.99542,34.58984 z" id="path47" />
    <path d="m 639.43061,732.74414 q 0,18.32031 -4.39248,28.50586 -4.3518,10.11719 -12.48601,10.11719 -4.67718,0 -8.09355,-3.41797 -3.41637,-3.41797 -5.24657,-9.84375 h -0.0813 q 0,2.39258 -0.20335,6.5625 -0.16269,4.16992 -0.36604,5.33203 h -11.10321 q 0.32537,-6.35742 0.32537,-16.88477 V 668.55469 H 609.212 v 28.30078 l -0.16268,12.03125 h 0.16268 q 3.86376,-14.21875 14.07219,-14.21875 7.80885,0 11.9573,9.98047 4.18912,9.91211 4.18912,28.0957 z m -11.91662,0 q 0,-12.57812 -2.19624,-18.66211 -2.19624,-6.08398 -6.79207,-6.08398 -4.6365,0 -7.07677,6.5625 -2.39959,6.49414 -2.39959,18.79882 0,11.75782 2.35892,18.32032 2.39959,6.5625 7.0361,6.5625 9.06965,0 9.06965,-25.49805 z" id="path49" />
    <path d="M 648.66295,770 V 668.55469 h 11.42857 V 770 Z" id="path51" />
    <path d="m 689.82208,771.36719 q -9.92374,0 -15.25165,-9.84375 -5.32791,-9.91211 -5.32791,-28.84766 0,-18.32031 5.40925,-28.16406 5.40925,-9.84375 15.33299,-9.84375 9.47636,0 14.47891,10.5957 5.00254,10.52735 5.00254,30.89844 v 0.54687 h -28.22573 q 0,10.80079 2.35893,16.33789 2.39959,5.46875 6.79206,5.46875 6.05999,0 7.64617,-8.81835 l 10.77783,1.57226 q -4.67717,20.09766 -18.99339,20.09766 z m 0,-64.59961 q -4.02644,0 -6.22267,4.71679 -2.15557,4.7168 -2.27758,13.19336 h 17.08185 q -0.32537,-8.95507 -2.56228,-13.39843 -2.23691,-4.51172 -6.01932,-4.51172 z" id="path53" />
    <path d="m 767.78852,755.50781 q 10.85918,0 15.08897,-18.32031 l 10.45246,6.63086 q -3.3757,13.94531 -9.92374,20.78125 -6.50737,6.76758 -15.61769,6.76758 -13.82816,0 -21.39298,-13.125 -7.52415,-13.19336 -7.52415,-36.84571 0,-23.7207 7.28012,-36.43554 7.28012,-12.71485 21.10829,-12.71485 10.08642,0 16.43111,6.83594 6.34469,6.76758 8.90696,19.96094 l -10.57447,4.85351 q -1.34215,-7.24609 -5.28724,-11.48437 -3.90443,-4.30664 -9.23234,-4.30664 -8.13421,0 -12.364,8.47656 -4.18912,8.47656 -4.18912,24.81445 0,16.61133 4.31113,25.36133 4.3518,8.75 12.52669,8.75 z" id="path55" />
    <path d="m 843.23337,732.94922 q 0,17.97851 -5.93798,28.23242 -5.93797,10.18555 -16.43111,10.18555 -10.28978,0 -16.14642,-10.25391 -5.85663,-10.25391 -5.85663,-28.16406 0,-17.8418 5.85663,-28.02735 5.85664,-10.2539 16.39045,-10.2539 10.77783,0 16.43111,9.91211 5.69395,9.84375 5.69395,28.36914 z m -11.9573,0 q 0,-13.19336 -2.56227,-19.14063 -2.56228,-5.94726 -7.44281,-5.94726 -10.41179,0 -10.41179,25.08789 0,12.37305 2.5216,18.86719 2.56228,6.42578 7.36147,6.42578 10.5338,0 10.5338,-25.29297 z" id="path57" />
    <path d="m 878.2105,770 v -41.49414 q 0,-19.48242 -6.67006,-19.48242 -3.45704,0 -5.65328,5.94726 -2.15556,5.94727 -2.15556,15.38086 V 770 h -11.42858 v -57.42188 q 0,-5.94726 -0.12201,-9.70703 -0.0813,-3.82812 -0.20335,-6.83593 h 10.89984 q 0.12202,1.29882 0.32537,6.97265 0.20336,5.60547 0.20336,7.72461 h 0.16268 q 2.1149,-8.47656 5.24657,-12.30469 3.17234,-3.82812 7.56482,-3.82812 10.08643,0 12.24199,16.13281 h 0.24403 q 2.23691,-8.61328 5.36858,-12.37305 3.13167,-3.75976 7.97153,-3.75976 6.42603,0 9.80173,7.38281 3.3757,7.31445 3.3757,21.05469 V 770 h -11.34723 v -41.49414 q 0,-19.48242 -6.67006,-19.48242 -3.33503,0 -5.49059,5.46875 -2.1149,5.40039 -2.31825,14.9707 V 770 Z" id="path59" />
    <path d="m 968.01221,732.67578 q 0,18.52539 -4.43314,28.64258 -4.39248,10.04883 -12.44535,10.04883 -4.6365,0 -8.09354,-3.34961 -3.41637,-3.41797 -5.24657,-9.77539 h -0.24403 q 0.24403,2.05078 0.24403,12.4414 v 28.36914 h -11.42857 v -85.99609 q 0,-10.45898 -0.32537,-17.02148 h 11.1032 q 0.20336,1.23046 0.32537,4.85351 0.16268,3.62305 0.16268,7.17774 h 0.16269 q 3.86375,-13.60352 14.07219,-13.60352 7.68683,0 11.91662,9.98047 4.22979,9.91211 4.22979,28.23242 z m -11.91662,0 q 0,-24.88281 -9.06965,-24.88281 -4.55516,0 -6.99542,6.69922 -2.3996,6.69922 -2.3996,18.73047 0,11.96289 2.3996,18.52539 2.44026,6.49414 6.91408,6.49414 9.15099,0 9.15099,-25.56641 z" id="path61" />
    <path d="m 988.02239,696.03516 v 41.49414 q 0,19.48242 7.80884,19.48242 4.14845,0 6.67007,-5.94727 2.5623,-6.01562 2.5623,-15.38086 v -39.64843 h 11.4285 v 57.42187 q 0,9.43359 0.3254,16.54297 h -10.8998 q -0.4881,-9.84375 -0.4881,-14.69727 h -0.2033 q -2.2776,8.40821 -5.81601,12.23633 -3.49772,3.82813 -8.33757,3.82813 -6.99543,0 -10.73717,-7.17774 -3.74173,-7.24609 -3.74173,-21.1914 v -46.96289 z" id="path63" />
    <path d="m 1039.39,771.23047 q -5.0433,0 -7.7682,-4.58008 -2.725,-4.64844 -2.725,-14.01367 v -43.61328 h -5.5719 v -12.98828 h 6.1413 l 3.5791,-17.36329 h 7.1581 v 17.36329 h 8.3375 v 12.98828 h -8.3375 v 38.41797 q 0,5.40039 1.2201,7.99804 1.2201,2.5293 3.7824,2.5293 1.3422,0 3.8231,-0.95703 v 11.89453 q -4.2298,2.32422 -9.639,2.32422 z" id="path65" />
    <path d="m 1055.8617,770 v -73.96484 h 11.4286 V 770 Z m 0,-87.29492 v -14.15039 h 11.4286 v 14.15039 z" id="path67" />
    <path d="m 1107.514,770 v -41.49414 q 0,-19.48242 -7.8495,-19.48242 -4.1485,0 -6.7107,6.01562 -2.5216,5.94727 -2.5216,15.3125 V 770 h -11.4286 v -57.42188 q 0,-5.94726 -0.122,-9.70703 -0.081,-3.82812 -0.2034,-6.83593 h 10.8999 q 0.122,1.29882 0.3253,6.97265 0.2034,5.60547 0.2034,7.72461 h 0.1627 q 2.3182,-8.47656 5.8159,-12.30469 3.4977,-3.82812 8.3376,-3.82812 6.9954,0 10.7372,7.24609 3.7417,7.2461 3.7417,21.19141 V 770 Z" id="path69" />
    <path d="m 1148.3071,799.66797 q -8.0529,0 -12.9741,-5.19531 -4.8805,-5.12696 -6.0193,-14.69727 l 11.4286,-2.25586 q 0.61,4.44336 2.6029,6.97266 2.0336,2.52929 5.2873,2.52929 4.7585,0 6.9547,-4.92187 2.1963,-4.92188 2.1963,-14.62891 v -3.89648 l 0.081,-7.31445 h -0.081 q -3.7825,13.60351 -14.1536,13.60351 -7.6868,0 -11.9166,-9.70703 -4.2298,-9.70703 -4.2298,-27.75391 0,-18.11523 4.3518,-27.95898 4.3518,-9.84375 12.6487,-9.84375 9.5984,0 13.2995,13.33008 h 0.2033 q 0,-2.39258 0.1627,-6.49414 0.2034,-4.10157 0.4067,-5.40039 h 10.8185 q -0.244,7.38281 -0.244,17.08984 v 54.61914 q 0,15.79102 -5.3279,23.85742 -5.3279,8.06641 -15.4957,8.06641 z m 9.5577,-67.67578 q 0,-11.41602 -2.4403,-17.77344 -2.3996,-6.42578 -6.8734,-6.42578 -9.151,0 -9.151,24.60937 0,24.13086 9.0697,24.13086 4.5551,0 6.9547,-6.35742 2.4403,-6.42578 2.4403,-18.18359 z" id="path71" />
    <path d="m 1203.6604,770 v -96.31836 h 11.998 v 80.73242 h 30.7473 V 770 Z" id="path73" />
    <path d="m 1254.54,770 v -96.31836 h 11.9979 v 80.73242 h 30.7474 V 770 Z" id="path75" />
    <path d="m 1332.181,755.50781 q 10.8592,0 15.089,-18.32031 l 10.4525,6.63086 q -3.3757,13.94531 -9.9238,20.78125 -6.5073,6.76758 -15.6177,6.76758 -13.8281,0 -21.3929,-13.125 -7.5242,-13.19336 -7.5242,-36.84571 0,-23.7207 7.2801,-36.43554 7.2801,-12.71485 21.1083,-12.71485 10.0864,0 16.4311,6.83594 6.3447,6.76758 8.907,19.96094 l -10.5745,4.85351 q -1.3421,-7.24609 -5.2872,-11.48437 -3.9044,-4.30664 -9.2324,-4.30664 -8.1342,0 -12.364,8.47656 -4.1891,8.47656 -4.1891,24.81445 0,16.61133 4.3111,25.36133 4.3519,8.75 12.5267,8.75 z" id="path77" />
  </g>
</svg>